<svg width="22" height="22" viewBox="0 0 22 22" fill="none" xmlns="http://www.w3.org/2000/svg">
<g clip-path="url(#clip0_0_1202)">
<path d="M8.59241 2.20027C9.20429 1.67882 9.51019 1.41811 9.83009 1.26522C10.5699 0.911593 11.43 0.911593 12.1699 1.26522C12.4898 1.41811 12.7957 1.67882 13.4076 2.20027C13.6511 2.4078 13.7729 2.51158 13.903 2.59874C14.2011 2.79854 14.5358 2.93722 14.8879 3.00672C15.0415 3.03705 15.2009 3.04978 15.52 3.07522C16.3213 3.13917 16.722 3.17115 17.0563 3.28923C17.8295 3.56234 18.4377 4.17051 18.7108 4.94371C18.8289 5.27801 18.8608 5.6787 18.9248 6.48008C18.9502 6.79904 18.9629 6.95851 18.9933 7.1121C19.0627 7.46418 19.2014 7.79896 19.4013 8.09707C19.4884 8.22711 19.5922 8.34888 19.7998 8.5924C20.3212 9.20428 20.5819 9.51029 20.7348 9.83008C21.0884 10.5699 21.0884 11.43 20.7348 12.1699C20.5819 12.4898 20.3212 12.7957 19.7998 13.4076C19.5922 13.6511 19.4884 13.7729 19.4013 13.903C19.2014 14.2011 19.0627 14.5358 18.9933 14.888C18.9629 15.0415 18.9502 15.201 18.9248 15.5199C18.8608 16.3213 18.8289 16.722 18.7108 17.0563C18.4377 17.8295 17.8295 18.4377 17.0563 18.7108C16.722 18.8289 16.3213 18.8608 15.52 18.9248C15.2009 18.9502 15.0415 18.963 14.8879 18.9933C14.5358 19.0628 14.2011 19.2014 13.903 19.4013C13.7729 19.4884 13.6511 19.5922 13.4076 19.7998C12.7957 20.3212 12.4898 20.5819 12.1699 20.7348C11.43 21.0884 10.5699 21.0884 9.83009 20.7348C9.51019 20.5819 9.20429 20.3212 8.59241 19.7998C8.34888 19.5922 8.2271 19.4884 8.09706 19.4013C7.79896 19.2014 7.46418 19.0628 7.1121 18.9933C6.95851 18.963 6.79904 18.9502 6.48008 18.9248C5.6787 18.8608 5.278 18.8289 4.94371 18.7108C4.17051 18.4377 3.56233 17.8295 3.28923 17.0563C3.17115 16.722 3.13917 16.3213 3.07523 15.5199C3.04977 15.201 3.03705 15.0415 3.00672 14.888C2.93722 14.5358 2.79855 14.2011 2.59874 13.903C2.51158 13.7729 2.40781 13.6511 2.20027 13.4076C1.67883 12.7957 1.41811 12.4898 1.26521 12.1699C0.911596 11.43 0.911596 10.5699 1.26521 9.83008C1.41811 9.51018 1.67883 9.20428 2.20027 8.5924C2.40781 8.34888 2.51158 8.22711 2.59874 8.09707C2.79855 7.79896 2.93722 7.46418 3.00672 7.1121C3.03705 6.95851 3.04977 6.79904 3.07523 6.48008C3.13917 5.6787 3.17115 5.27801 3.28923 4.94371C3.56233 4.17051 4.17051 3.56234 4.94371 3.28923C5.278 3.17115 5.6787 3.13917 6.48008 3.07522C6.79904 3.04978 6.95851 3.03705 7.1121 3.00672C7.46418 2.93722 7.79896 2.79854 8.09706 2.59874C8.22711 2.51158 8.34888 2.4078 8.59241 2.20027Z" stroke="#B6BFD8" stroke-width="1.5"/>
<path d="M15.1893 10.5615L15.08 11.5328L15.9692 11.6242L16.0785 10.6529L15.1893 10.5615ZM11.59 15.0867H10.2928V15.9414H11.59V15.0867ZM6.80287 11.5328L6.69355 10.5615L5.80437 10.6529L5.91369 11.6242L6.80287 11.5328ZM9.40028 9.98662L10.4672 8.15837L9.68614 7.74205L8.61923 9.57026L9.40028 9.98662ZM11.4157 8.15836L12.4826 9.98662L13.2637 9.57026L12.1967 7.74205L11.4157 8.15836ZM12.4826 9.98662C12.579 10.1519 12.6678 10.3051 12.7538 10.4222C12.8424 10.5427 12.9632 10.6758 13.1483 10.7537L13.5087 9.97152C13.542 9.98548 13.5364 9.9999 13.4857 9.93106C13.4326 9.85876 13.3696 9.75186 13.2637 9.57026L12.4826 9.98662ZM13.8874 9.653C13.7332 9.79984 13.6416 9.88622 13.5696 9.94189C13.501 9.99494 13.4995 9.97972 13.5353 9.97499L13.6577 10.8217C13.858 10.7952 14.0123 10.699 14.1321 10.6063C14.2486 10.5163 14.3781 10.3923 14.5185 10.2585L13.8874 9.653ZM13.1483 10.7537C13.3083 10.821 13.4847 10.8445 13.6577 10.8217L13.5353 9.97499C13.5262 9.97619 13.517 9.97499 13.5087 9.97152L13.1483 10.7537ZM7.36432 10.2585C7.50477 10.3923 7.63428 10.5163 7.75074 10.6063C7.87057 10.699 8.02494 10.7952 8.2251 10.8217L8.3476 9.97499C8.38338 9.97972 8.38186 9.99494 8.31324 9.94189C8.24124 9.88622 8.14972 9.79984 7.99545 9.653L7.36432 10.2585ZM8.61923 9.57026C8.51328 9.75186 8.45023 9.85876 8.39712 9.93106C8.34654 9.9999 8.34087 9.98548 8.37414 9.97152L8.73455 10.7537C8.91962 10.6758 9.04046 10.5427 9.12902 10.4222C9.21507 10.3051 9.30383 10.1519 9.40028 9.98662L8.61923 9.57026ZM8.2251 10.8217C8.39819 10.8445 8.57459 10.821 8.73455 10.7537L8.37414 9.97152C8.36589 9.97499 8.35668 9.97619 8.3476 9.97499L8.2251 10.8217ZM10.2928 15.0867C9.43554 15.0867 8.83515 15.0859 8.37689 15.0299C7.93113 14.9753 7.6793 14.8744 7.49076 14.7131L6.89431 15.35C7.26984 15.6712 7.72274 15.8115 8.26339 15.8777C8.79155 15.9422 9.45926 15.9414 10.2928 15.9414V15.0867ZM5.91369 11.6242C6.00202 12.4091 6.07211 13.1778 6.19159 13.8013C6.25186 14.1157 6.32786 14.412 6.43312 14.6692C6.53749 14.9242 6.68148 15.1679 6.89431 15.35L7.49076 14.7131C7.42155 14.6539 7.34276 14.5454 7.26597 14.3578C7.19008 14.1724 7.12654 13.9357 7.07127 13.6473C6.95967 13.065 6.89466 12.3484 6.80287 11.5328L5.91369 11.6242ZM15.08 11.5328C14.9882 12.3484 14.9232 13.065 14.8116 13.6473C14.7563 13.9357 14.6928 14.1724 14.6169 14.3578C14.5401 14.5454 14.4613 14.6539 14.3921 14.7131L14.9885 15.35C15.2014 15.1679 15.3454 14.9242 15.4498 14.6692C15.555 14.412 15.631 14.1157 15.6913 13.8013C15.8108 13.1778 15.8808 12.4091 15.9692 11.6242L15.08 11.5328ZM11.59 15.9414C12.4236 15.9414 13.0913 15.9422 13.6195 15.8777C14.1601 15.8115 14.613 15.6712 14.9885 15.35L14.3921 14.7131C14.2036 14.8744 13.9517 14.9753 13.506 15.0299C13.0477 15.0859 12.4473 15.0867 11.59 15.0867V15.9414ZM10.1962 6.39727C10.1962 6.00391 10.5298 5.68502 10.9414 5.68502V4.83032C10.0359 4.83032 9.30187 5.53187 9.30187 6.39727H10.1962ZM10.9414 5.68502C11.3531 5.68502 11.6867 6.00391 11.6867 6.39727H12.581C12.581 5.53187 11.847 4.83032 10.9414 4.83032V5.68502ZM16.1582 8.67648C16.1582 8.91249 15.958 9.10383 15.7111 9.10383V9.95853C16.4519 9.95853 17.0525 9.38451 17.0525 8.67648H16.1582ZM15.2639 8.67648C15.2639 8.44046 15.4641 8.24913 15.7111 8.24913V7.39442C14.9702 7.39442 14.3696 7.96842 14.3696 8.67648H15.2639ZM15.7111 8.24913C15.958 8.24913 16.1582 8.44046 16.1582 8.67648H17.0525C17.0525 7.96842 16.4519 7.39442 15.7111 7.39442V8.24913ZM6.17179 9.10383C5.92483 9.10383 5.72463 8.91249 5.72463 8.67648H4.83032C4.83032 9.38451 5.43092 9.95853 6.17179 9.95853V9.10383ZM5.72463 8.67648C5.72463 8.44046 5.92483 8.24913 6.17179 8.24913V7.39442C5.43092 7.39442 4.83032 7.96842 4.83032 8.67648H5.72463ZM6.17179 8.24913C6.41874 8.24913 6.61894 8.44046 6.61894 8.67648H7.51325C7.51325 7.96842 6.91266 7.39442 6.17179 7.39442V8.24913ZM15.7111 9.10383C15.7093 9.10383 15.7075 9.10382 15.7057 9.1038L15.6953 9.95841C15.7006 9.95847 15.7058 9.95853 15.7111 9.95853V9.10383ZM16.0785 10.6529C16.1073 10.3965 16.1326 10.1727 16.1464 9.98588C16.16 9.80292 16.1652 9.62742 16.1437 9.47437L15.2573 9.58787C15.2661 9.65044 15.2671 9.75386 15.2544 9.92548C15.2419 10.0933 15.2188 10.2996 15.1893 10.5615L16.0785 10.6529ZM15.7057 9.1038C15.5728 9.10233 15.4541 9.04586 15.3724 8.95558L14.6957 9.51431C14.9378 9.78217 15.2956 9.95403 15.6953 9.95841L15.7057 9.1038ZM15.3724 8.95558C15.3045 8.88046 15.2639 8.78354 15.2639 8.67648H14.3696C14.3696 8.99638 14.4928 9.28987 14.6957 9.51431L15.3724 8.95558ZM14.5185 10.2585C14.9225 9.87403 15.1305 9.68024 15.2689 9.59858L14.7992 8.8713C14.5488 9.01898 14.2486 9.30913 13.8874 9.653L14.5185 10.2585ZM6.61894 8.67648C6.61894 8.78354 6.57833 8.88046 6.51042 8.95558L7.18717 9.51431C7.39007 9.28987 7.51325 8.99638 7.51325 8.67648H6.61894ZM7.99545 9.653C7.63426 9.30913 7.33401 9.01898 7.08366 8.8713L6.61393 9.59858C6.75235 9.68024 6.96041 9.87403 7.36432 10.2585L7.99545 9.653ZM6.51042 8.95558C6.42881 9.04586 6.31006 9.10233 6.17718 9.1038L6.18752 9.95841C6.5872 9.95403 6.94507 9.78217 7.18717 9.51431L6.51042 8.95558ZM6.17718 9.1038C6.17537 9.10382 6.17358 9.10383 6.17179 9.10383V9.95853C6.17704 9.95853 6.18228 9.95847 6.18752 9.95841L6.17718 9.1038ZM6.69355 10.5615C6.66408 10.2996 6.64092 10.0933 6.62849 9.92548C6.61576 9.75386 6.61677 9.65044 6.62554 9.58787L5.73915 9.47437C5.7177 9.62742 5.72285 9.80292 5.73641 9.98588C5.75026 10.1727 5.77552 10.3965 5.80437 10.6529L6.69355 10.5615ZM11.6867 6.39727C11.6867 6.67365 11.5221 6.91402 11.2794 7.03236L11.6858 7.7937C12.2162 7.53508 12.581 7.00726 12.581 6.39727H11.6867ZM11.2794 7.03236C11.1784 7.08158 11.064 7.10952 10.9414 7.10952V7.96423C11.2085 7.96423 11.4619 7.90286 11.6858 7.7937L11.2794 7.03236ZM12.1967 7.74205C12.0737 7.53129 11.9632 7.3417 11.8618 7.18656L11.1034 7.6395C11.1904 7.77261 11.2889 7.94114 11.4157 8.15836L12.1967 7.74205ZM10.9414 7.10952C10.8189 7.10952 10.7044 7.08158 10.6035 7.03236L10.1971 7.7937C10.4209 7.90286 10.6743 7.96423 10.9414 7.96423V7.10952ZM10.6035 7.03236C10.3608 6.91402 10.1962 6.67365 10.1962 6.39727H9.30187C9.30187 7.00726 9.66666 7.53508 10.1971 7.7937L10.6035 7.03236ZM10.4672 8.15837C10.594 7.94114 10.6925 7.77261 10.7795 7.6395L10.0211 7.18656C9.91966 7.3417 9.80912 7.53129 9.68614 7.74205L10.4672 8.15837Z" fill="#B6BFD8"/>
</g>
<defs>
<clipPath id="clip0_0_1202">
<rect width="22" height="22" fill="white"/>
</clipPath>
</defs>
</svg>
