<svg width="16" height="16" viewBox="0 0 16 16" fill="none" xmlns="http://www.w3.org/2000/svg">
<path d="M7.34678 0.727272C9.47749 0.727272 11.2935 2.28457 11.7032 4.40733C13.7629 4.82967 15.2727 6.70218 15.2727 8.89787C15.2727 11.4269 13.284 13.477 10.8307 13.477C10.1807 13.477 9.55046 13.3329 8.97331 13.0586L8.95849 13.0845C8.156 14.4332 6.7328 15.2727 5.16932 15.2727C2.71606 15.2727 0.727295 13.2226 0.727295 10.6936C0.727295 8.97545 1.6535 7.42805 3.0972 6.64219C2.9701 6.21358 2.90476 5.76464 2.90476 5.3064C2.90476 2.77741 4.89352 0.727272 7.34678 0.727272ZM6.82648 12.6322L6.73181 12.7141C6.41026 12.9788 6.03001 13.1587 5.62177 13.2355L5.49848 13.2554L5.49831 14.5798C6.28884 14.5096 7.02678 14.1868 7.62121 13.6648L7.73097 13.5646L6.82648 12.6322ZM3.58219 12.6936L2.6759 13.6278C3.24036 14.138 3.9382 14.4652 4.6894 14.5633L4.84032 14.5798L4.84015 13.2554C4.41735 13.1982 4.02034 13.0312 3.68192 12.7736L3.58219 12.6936ZM2.68423 11.0328L1.39948 11.0328C1.46009 11.7581 1.71475 12.4413 2.12908 13.0164L2.2203 13.138L3.13191 12.199C2.91929 11.8937 2.77356 11.5445 2.70592 11.1731L2.68423 11.0328ZM8.93917 11.0327L7.65443 11.0326L7.63467 11.1623C7.58124 11.4628 7.4767 11.7491 7.32676 12.0097L7.25973 12.1198L8.17511 13.0635C8.5811 12.5172 8.8406 11.8705 8.924 11.1811L8.93917 11.0327ZM9.59017 11.1435L9.57105 11.3129C9.51939 11.7067 9.41857 12.0892 9.27155 12.4531C9.6098 12.6111 9.96961 12.7168 10.3416 12.7663L10.5017 12.7841L10.5016 11.4596C10.2254 11.4223 9.95963 11.338 9.71227 11.2107L9.59017 11.1435ZM12.4879 10.8365C12.1474 11.146 11.7322 11.3553 11.2832 11.4397L11.1599 11.4596L11.1597 12.7841C11.9503 12.7138 12.6882 12.3911 13.2826 11.8691L13.3924 11.7689L12.4879 10.8365ZM5.16932 8.78812C4.14847 8.78812 3.32089 9.64124 3.32089 10.6936C3.32089 11.746 4.14847 12.5991 5.16932 12.5991C6.19018 12.5991 7.01774 11.746 7.01774 10.6936C7.01774 9.64124 6.19018 8.78812 5.16932 8.78812ZM14.6006 9.23699L13.3158 9.2369L13.2961 9.36653C13.2427 9.66705 13.1381 9.95334 12.9882 10.214L12.9211 10.3241L13.8365 11.2677C14.2425 10.7215 14.502 10.0747 14.5854 9.38536L14.6006 9.23699ZM9.51661 10.9417L9.51892 10.9138L9.5196 10.8928L9.51661 10.9417ZM11.4363 7.09698L11.3753 7.23817C10.9969 8.07534 10.3786 8.77816 9.60627 9.24964L9.46839 9.33043L9.41917 9.35721C9.51089 9.66755 9.57047 9.98835 9.59642 10.3155C9.93227 10.6274 10.3679 10.8033 10.8307 10.8033C11.8516 10.8033 12.6792 9.95024 12.6792 8.89787C12.6792 8.10925 12.2102 7.41492 11.5202 7.12927L11.4363 7.09698ZM9.52206 10.563L9.52345 10.6402L9.52316 10.5923L9.52206 10.563ZM9.59913 10.3515L9.51232 10.3577L9.5534 10.3951L9.60186 10.3919L9.59913 10.3515ZM9.51232 10.3577C9.51315 10.3692 9.51381 10.3802 9.51452 10.3911L9.51232 10.3577ZM8.07551 8.19535L7.16662 9.13225C7.40228 9.45209 7.56275 9.8239 7.63398 10.2211L7.65441 10.3544L8.93917 10.3545C8.87641 9.60355 8.60568 8.89808 8.16574 8.31114L8.07551 8.19535ZM2.22027 8.24924L2.12907 8.37081C1.74434 8.90488 1.49728 9.53209 1.41542 10.1997L1.39948 10.3545L2.68421 10.3546C2.73211 9.978 2.85948 9.62093 3.05512 9.30507L3.13166 9.18859L2.22027 8.24924ZM9.2689 9.17687L9.28559 9.22666H9.28602L9.28341 9.21811L9.2689 9.17687ZM9.25863 9.14733L9.26847 9.17598L9.26407 9.16156L9.25863 9.14733ZM9.00394 7.24501C8.84012 7.39393 8.65816 7.52033 8.46266 7.62069C8.75147 7.94942 8.99293 8.31967 9.17877 8.72011C9.38923 8.59999 9.58811 8.45926 9.77271 8.30014L9.90842 8.17738L9.00394 7.24501ZM4.84035 6.8074L4.68941 6.82395C3.98829 6.91549 3.33364 7.20657 2.79054 7.65983L2.6759 7.75942L3.58245 8.69391C3.90831 8.41819 4.29668 8.23124 4.71428 8.15224L4.84041 8.1318L4.84035 6.8074ZM5.4983 6.8074L5.49819 8.1318C5.89635 8.18562 6.27181 8.33676 6.59723 8.56973L6.70381 8.65038L7.6118 7.71421C7.05506 7.22861 6.37501 6.91782 5.64495 6.82339L5.4983 6.8074ZM13.7369 6.39962L12.828 7.33652C13.0637 7.65636 13.2242 8.02816 13.2954 8.42537L13.3158 8.55867L14.6006 8.55873C14.5378 7.80782 14.2671 7.10234 13.8272 6.51541L13.7369 6.39962ZM11.1166 5.64553L9.83189 5.64542L9.81213 5.77505C9.7587 6.07557 9.65416 6.36186 9.50422 6.6225L9.43719 6.73259L10.3526 7.67627C10.7586 7.12999 11.0181 6.48326 11.1015 5.79388L11.1166 5.64553ZM7.97407 7.14255L7.919 7.2121L7.91963 7.21263L7.92687 7.2097L7.97798 7.14584L7.97407 7.14255ZM7.34678 3.40093C6.32593 3.40093 5.49836 4.25403 5.49836 5.3064C5.49836 5.5648 5.54826 5.81567 5.64344 6.04774L5.68699 6.14601L5.78022 6.15744C6.57457 6.2701 7.31669 6.60167 7.93708 7.1118C8.68138 6.85444 9.1952 6.13194 9.1952 5.3064C9.1952 4.25403 8.36764 3.40093 7.34678 3.40093ZM11.4255 6.88132L11.4178 6.90204L11.4192 6.89986L11.4255 6.88132ZM11.7853 5.12229C11.7876 5.1835 11.7888 5.24487 11.7888 5.3064C11.7888 5.60969 11.7602 5.90918 11.7036 6.20288L11.6664 6.37839L11.6472 6.45411L11.7754 6.50377C11.9444 6.57474 12.1051 6.66455 12.2549 6.77137L12.3652 6.85465L13.2732 5.91847C12.8418 5.54224 12.3342 5.26935 11.7853 5.12229ZM3.2119 6.68222L3.20227 6.68724C3.20643 6.68506 3.20917 6.68364 3.2119 6.68222ZM3.1765 6.59967L3.16307 6.60705L3.2013 6.68473L3.1765 6.59967ZM3.35241 6.61245C3.35086 6.61318 3.3493 6.61392 3.34775 6.61465L3.35241 6.61245ZM3.5194 6.53766L3.48557 6.55213L3.53072 6.53311L3.5194 6.53766ZM3.5658 6.51813L3.53927 6.52959L3.56622 6.51857L3.5658 6.51813ZM4.86169 5.64558L3.57694 5.64554C3.59751 5.89183 3.64046 6.1338 3.70494 6.36909C4.10887 6.22383 4.53274 6.13925 4.96676 6.11916C4.92984 6.00418 4.90079 5.88628 4.87988 5.76627L4.86169 5.64558ZM5.52301 6.21885L5.5226 6.21928L5.52814 6.21972L5.52773 6.21928L5.52301 6.21885ZM5.45648 6.21395L5.48932 6.2162H5.4905L5.45648 6.21395ZM5.30064 6.20627L5.36483 6.20871C5.34351 6.20775 5.32209 6.20693 5.30064 6.20627ZM10.253 2.80816L9.34408 3.74504C9.57974 4.06488 9.74022 4.43669 9.81145 4.83389L9.83187 4.96721L11.1166 4.96725C11.0539 4.21634 10.7831 3.51087 10.3432 2.92393L10.253 2.80816ZM4.39775 2.86204C3.9608 3.42143 3.68104 4.09352 3.59288 4.8125L3.57694 4.96726L4.86168 4.96737C4.90958 4.5908 5.03696 4.23372 5.23259 3.91786L5.30912 3.80139L4.39775 2.86204ZM11.6288 4.48402L11.6287 4.48485L11.6325 4.50689L11.6288 4.48402ZM11.7145 4.46792L11.63 4.48397L11.6916 4.49631L11.7187 4.49156L11.7145 4.46792ZM7.01781 1.4202L6.86687 1.43675C6.16575 1.52828 5.51112 1.81938 4.96802 2.27264L4.85336 2.37223L5.75992 3.3067C6.08578 3.03099 6.47414 2.84403 6.89174 2.76503L7.01787 2.74459L7.01781 1.4202ZM7.67576 1.4202L7.67565 2.74459C8.07381 2.79841 8.44927 2.94956 8.77469 3.18252L8.88127 3.26319L9.78926 2.32701C9.23252 1.8414 8.55247 1.53061 7.82241 1.43618L7.67576 1.4202Z" fill="#C1C9E5"/>
</svg>
