<svg width="16" height="16" viewBox="0 0 16 16" fill="none" xmlns="http://www.w3.org/2000/svg">
<path d="M10.1549 15.2693H5.84514C5.75978 15.2693 5.67563 15.2498 5.59965 15.2123C5.52366 15.1748 5.45801 15.1204 5.40809 15.0536C5.35818 14.9869 5.32544 14.9096 5.31257 14.8283C5.2997 14.7469 5.30707 14.6638 5.33407 14.5857L6.06725 12.4653C5.45924 12.6645 4.8107 12.7212 4.17543 12.6305C3.54017 12.5399 2.93647 12.3045 2.41442 11.944C1.89237 11.5834 1.467 11.1081 1.17359 10.5574C0.880177 10.0067 0.727184 9.39644 0.727295 8.77733C0.727295 7.22381 1.92012 5.40117 4.27263 3.35999C5.35184 2.42959 6.50061 1.57701 7.70962 0.809151C7.79632 0.755685 7.8971 0.727272 8.00002 0.727272C8.10295 0.727272 8.20372 0.755685 8.29043 0.809151C9.49944 1.57701 10.6482 2.42959 11.7274 3.35999C14.0799 5.40117 15.2727 7.22381 15.2727 8.77733C15.2729 9.39644 15.1199 10.0067 14.8265 10.5574C14.533 11.1081 14.1077 11.5834 13.5856 11.944C13.0636 12.3045 12.4599 12.5399 11.8246 12.6305C11.1893 12.7212 10.5408 12.6645 9.93279 12.4653L10.666 14.5857C10.693 14.6638 10.7003 14.7469 10.6875 14.8283C10.6746 14.9096 10.6419 14.9869 10.592 15.0536C10.542 15.1204 10.4764 15.1748 10.4004 15.2123C10.3244 15.2498 10.2403 15.2693 10.1549 15.2693ZM6.59259 14.2306H9.40746L8.47382 11.5305C8.43672 11.4232 8.43696 11.3072 8.47449 11.2C8.51203 11.0929 8.58481 11.0005 8.68177 10.9369C8.77874 10.8732 8.8946 10.8419 9.01175 10.8475C9.12891 10.8532 9.24095 10.8955 9.33086 10.9681C9.76317 11.3168 10.2897 11.5394 10.8486 11.6098C11.4075 11.6801 11.9757 11.5953 12.4864 11.3653C12.997 11.1353 13.4291 10.7697 13.7318 10.3113C14.0345 9.85287 14.1953 9.32073 14.1953 8.77733C14.1953 6.37021 9.96888 3.13943 8.00002 1.86772C6.03116 3.13943 1.80474 6.37021 1.80474 8.77733C1.80476 9.32073 1.96555 9.85286 2.26825 10.3113C2.57095 10.7697 3.003 11.1353 3.51369 11.3653C4.02438 11.5953 4.59252 11.6801 5.15144 11.6098C5.71036 11.5394 6.23687 11.3168 6.66918 10.9681C6.7591 10.8955 6.87114 10.8531 6.98829 10.8475C7.10544 10.8419 7.2213 10.8732 7.31827 10.9369C7.41524 11.0005 7.48802 11.0929 7.52555 11.2C7.56309 11.3072 7.56332 11.4232 7.52623 11.5305L6.59259 14.2306Z" fill="#C1C9E5"/>
</svg>
