<svg width="16" height="14" viewBox="0 0 16 14" fill="none" xmlns="http://www.w3.org/2000/svg">
<path fill-rule="evenodd" clip-rule="evenodd" d="M16 1.39997C16 0.781153 15.1673 0.561043 14.6164 0.415426C14.5657 0.402049 14.5175 0.389296 14.4725 0.376927C13.7845 0.187721 12.8074 0 11.6364 0C10.3827 0 9.34902 0.40179 8.6392 0.792213C8.53062 0.851928 8.41644 0.934421 8.31324 1.00898C8.17695 1.10748 8.05985 1.19213 8 1.19213C7.94015 1.19213 7.82305 1.10748 7.68676 1.00898C7.58356 0.934421 7.46938 0.851928 7.3608 0.792213C6.65098 0.40179 5.61729 0 4.36364 0C3.19257 0 2.21549 0.187721 1.52748 0.376927C1.48421 0.38882 1.43785 0.401104 1.38921 0.413998C0.840727 0.559363 0 0.782175 0 1.39997V10.4997C0 10.7424 0.130509 10.9676 0.344924 11.0952C0.686029 11.2981 1.13617 11.1205 1.53508 10.9631C1.67425 10.9082 1.80718 10.8558 1.92707 10.8228C2.51178 10.662 3.35289 10.4997 4.36364 10.4997C5.28095 10.4997 5.96767 10.791 6.48247 11.0959C6.61469 11.1742 6.74836 11.2741 6.88553 11.3766C7.22458 11.6301 7.58531 11.8997 8 11.8997C8.41585 11.8997 8.77476 11.6311 9.11324 11.3777C9.25055 11.2749 9.38451 11.1747 9.51753 11.0959C10.0324 10.791 10.7191 10.4997 11.6364 10.4997C12.6471 10.4997 13.4882 10.662 14.0729 10.8228C14.1983 10.8573 14.3345 10.9126 14.4758 10.9701C14.8686 11.1297 15.3013 11.3056 15.6551 11.0952C15.8695 10.9676 16 10.7424 16 10.4997V1.39997ZM1.69638 1.7902C1.55028 1.83508 1.45455 1.9675 1.45455 2.11511V9.02915C1.45455 9.26287 1.68792 9.43108 1.92398 9.37634C2.57147 9.22626 3.40201 9.09978 4.36364 9.09978C5.64588 9.09978 6.6032 9.51935 7.27273 9.92023V2.41891C7.12647 2.30709 6.91178 2.15766 6.6392 2.00772C6.07631 1.69816 5.2918 1.39997 4.36364 1.39997C3.21097 1.39997 2.27628 1.61204 1.69638 1.7902ZM11.6364 9.09978C10.3541 9.09978 9.3968 9.51935 8.72727 9.92023V2.41891C8.87353 2.30709 9.08822 2.15766 9.3608 2.00772C9.92371 1.69816 10.7082 1.39997 11.6364 1.39997C12.789 1.39997 13.7237 1.61204 14.3036 1.7902C14.4497 1.83508 14.5455 1.9675 14.5455 2.11511V9.02915C14.5455 9.26287 14.3121 9.43108 14.076 9.37634C13.4285 9.22626 12.598 9.09978 11.6364 9.09978Z" fill="#C1C9E5"/>
<path d="M0.790756 12.8861C0.626581 12.5333 0.790669 12.1192 1.15724 11.9612C1.49778 11.8155 1.85033 11.6931 2.2049 11.5835C2.79318 11.4019 3.60658 11.2001 4.36359 11.2001C5.21224 11.2001 5.93657 11.6403 6.46155 11.9593C6.48849 11.9757 6.51492 11.9918 6.5408 12.0074C7.15246 12.3775 7.56388 12.6 7.99996 12.6C8.43552 12.6 8.84447 12.3781 9.45537 12.0077C9.48046 11.9925 9.50599 11.977 9.53203 11.9611C10.0575 11.6413 10.7823 11.2001 11.6363 11.2001C12.3974 11.2001 13.2106 11.4017 13.7986 11.5837C14.3266 11.747 14.7184 11.9086 14.819 11.9512C15.187 12.1078 15.3776 12.526 15.2085 12.8874C15.0448 13.2374 14.6079 13.3928 14.2453 13.2376C13.9551 13.1145 13.6553 13.0099 13.3534 12.9164C12.8103 12.7484 12.169 12.6 11.6363 12.6C11.2297 12.6 10.839 12.823 10.1868 13.2189C9.64614 13.547 8.89981 14 7.99996 14C7.09952 14 6.35076 13.5465 5.80857 13.2181C5.15504 12.8221 4.76523 12.6 4.36359 12.6C3.83543 12.6 3.1943 12.7482 2.64932 12.9166C2.34569 13.0103 2.0434 13.1146 1.75159 13.239C1.38505 13.3968 0.954901 13.2389 0.790756 12.8861Z" fill="#C1C9E5"/>
</svg>
