<svg width="16" height="16" viewBox="0 0 16 16" fill="none" xmlns="http://www.w3.org/2000/svg">
<path d="M7.5646 4.69329L1.76996 5.60898C1.74044 5.61366 1.71315 5.62755 1.692 5.64867L0.769223 6.57144C0.755938 6.58462 0.745393 6.6003 0.738196 6.61757C0.731 6.63485 0.727295 6.65337 0.727295 6.67208C0.727295 6.6908 0.731 6.70932 0.738196 6.7266C0.745393 6.74387 0.755938 6.75955 0.769223 6.77273L3.12932 9.13282L2.46169 9.80187C2.4484 9.81505 2.43786 9.83072 2.43066 9.848C2.42347 9.86527 2.41976 9.8838 2.41976 9.90251C2.41976 9.92122 2.42347 9.93975 2.43066 9.95702C2.43786 9.9743 2.4484 9.98997 2.46169 10.0032L4.08612 11.6276L3.44258 12.2725C3.42316 12.2923 3.40997 12.3174 3.40467 12.3447C3.39936 12.3719 3.40216 12.4001 3.41273 12.4257C3.42329 12.4514 3.44115 12.4734 3.4641 12.489C3.48704 12.5046 3.51406 12.5131 3.5418 12.5135C3.56046 12.5136 3.57895 12.51 3.59622 12.503C3.61349 12.4959 3.6292 12.4855 3.64245 12.4724L4.28598 11.8289L6.00538 13.5398C6.01855 13.553 6.03423 13.5636 6.0515 13.5708C6.06878 13.578 6.0873 13.5817 6.10602 13.5817C6.12473 13.5817 6.14326 13.578 6.16053 13.5708C6.1778 13.5636 6.19348 13.553 6.20666 13.5398L6.87571 12.8707L9.2358 15.2308C9.24898 15.2441 9.26466 15.2546 9.28193 15.2618C9.2992 15.269 9.31773 15.2727 9.33644 15.2727C9.35515 15.2727 9.37368 15.269 9.39095 15.2618C9.40823 15.2546 9.42391 15.2441 9.43708 15.2308L10.2876 14.3803L10.3641 14.3038C10.3852 14.2826 10.3991 14.2553 10.4038 14.2258L11.3082 8.43684L14.1842 5.55937C14.5892 5.15403 14.8788 4.64813 15.0234 4.0937C15.024 4.08757 15.024 4.0814 15.0234 4.07527C15.0655 3.91579 15.0948 3.75321 15.1112 3.58908L15.2686 1.99158C15.2853 1.82213 15.2643 1.65108 15.207 1.49074C15.1496 1.33041 15.0575 1.18479 14.937 1.06439C14.8166 0.943987 14.671 0.851798 14.5107 0.794469C14.3504 0.73714 14.1793 0.7161 14.0099 0.732864L12.4166 0.885952C12.2535 0.902442 12.0919 0.931347 11.9333 0.972418H11.912C11.357 1.11857 10.851 1.41021 10.4463 1.81723L7.5646 4.69329ZM4.17683 8.08672L1.95565 5.86696L7.22866 5.0349L4.17683 8.08672ZM1.06973 6.66925L1.71468 6.02713L3.98264 8.28659L3.3306 8.93296L1.06973 6.66925ZM9.32936 14.9289L7.06139 12.668L7.70635 12.0231L9.97431 14.291L9.32936 14.9289ZM10.1345 14.0415L7.91472 11.8246L10.9665 8.77278L10.1345 14.0415ZM12.445 1.16519L14.041 1.00785C14.1688 0.995556 14.2977 1.01167 14.4185 1.05505C14.5394 1.09843 14.6491 1.168 14.7398 1.25876C14.8306 1.34953 14.9002 1.45925 14.9436 1.58006C14.9869 1.70088 15.003 1.82979 14.9908 1.95756L14.8334 3.55364C14.8334 3.61743 14.8164 3.68121 14.8065 3.745L12.255 1.19354C12.3174 1.18504 12.384 1.1737 12.445 1.16803V1.16519ZM11.9262 1.26442L14.7342 4.07244C14.5961 4.55421 14.3381 4.99312 13.9843 5.34816L6.09893 13.2392L4.48726 11.6276L8.56534 7.5495C8.59174 7.52294 8.60656 7.48702 8.60656 7.44957C8.60656 7.41212 8.59174 7.3762 8.56534 7.34964C8.55216 7.33635 8.53648 7.32581 8.51921 7.31861C8.50193 7.31141 8.48341 7.30771 8.4647 7.30771C8.44598 7.30771 8.42746 7.31141 8.41018 7.31861C8.39291 7.32581 8.37723 7.33635 8.36405 7.34964L4.28598 11.4277L2.76219 9.90251L4.27606 8.38723L10.6462 2.0171C11.0027 1.66314 11.4431 1.40518 11.9262 1.26725V1.26442Z" fill="#C1C9E5" stroke="#C1C9E5" stroke-width="0.5"/>
<path d="M2.47819 13.8173C2.54784 13.8174 2.61664 13.8019 2.67947 13.7719L5.44639 12.482C5.67877 12.3752 5.8819 12.2138 6.03844 12.0116C6.19498 11.8094 6.3003 11.5723 6.34542 11.3205C6.39054 11.0688 6.37412 10.8099 6.29756 10.5659C6.22099 10.3218 6.08656 10.1 5.90573 9.91912C5.72489 9.73828 5.503 9.60385 5.25898 9.52729C5.01497 9.45073 4.75605 9.4343 4.50432 9.47942C4.25258 9.52454 4.01549 9.62986 3.81325 9.7864C3.61102 9.94295 3.44963 10.1461 3.34285 10.3785L2.05295 13.1454C2.01941 13.2171 2.00447 13.2962 2.0095 13.3752C2.01452 13.4542 2.03936 13.5307 2.08172 13.5977C2.12407 13.6646 2.18259 13.7198 2.25188 13.7582C2.32116 13.7965 2.39899 13.8169 2.47819 13.8173ZM2.30951 13.2659L3.59516 10.4975C3.68282 10.3068 3.81561 10.1402 3.98207 10.0123C4.14853 9.88435 4.34364 9.79889 4.55054 9.76327C4.62784 9.75034 4.70605 9.7437 4.78442 9.74343C4.97409 9.74491 5.16115 9.78769 5.33259 9.86881C5.50404 9.94992 5.65575 10.0674 5.77717 10.2131C5.8986 10.3588 5.98681 10.5292 6.03568 10.7125C6.08455 10.8958 6.0929 11.0875 6.06015 11.2743C6.02468 11.4811 5.93943 11.6761 5.81176 11.8425C5.68408 12.009 5.51782 12.1418 5.32732 12.2297L2.55899 13.5153C2.52407 13.532 2.48485 13.5374 2.44671 13.5309C2.40858 13.5244 2.37341 13.5062 2.34605 13.4788C2.31869 13.4514 2.30048 13.4163 2.29394 13.3781C2.2874 13.34 2.29284 13.3008 2.30951 13.2659Z" fill="#C1C9E5" stroke="#C1C9E5" stroke-width="0.5"/>
<path d="M11.559 5.92274C11.902 5.92283 12.2345 5.80394 12.4998 5.58634C12.765 5.36874 12.9466 5.0659 13.0135 4.72942C13.0805 4.39294 13.0287 4.04366 12.8669 3.7411C12.7052 3.43854 12.4435 3.20143 12.1266 3.07018C11.8096 2.93893 11.4569 2.92166 11.1286 3.02132C10.8004 3.12098 10.5168 3.3314 10.3263 3.61671C10.1358 3.90203 10.0501 4.24458 10.0839 4.58599C10.1176 4.92739 10.2687 5.24653 10.5114 5.489C10.6489 5.62673 10.8122 5.73595 10.9919 5.81038C11.1717 5.88482 11.3644 5.923 11.559 5.92274ZM10.7085 3.59383C10.8765 3.42684 11.0902 3.31334 11.3226 3.26765C11.555 3.22196 11.7957 3.24613 12.0145 3.3371C12.2332 3.42808 12.42 3.58178 12.5515 3.77883C12.6829 3.97588 12.7531 4.20745 12.7531 4.44432C12.7531 4.68119 12.6829 4.91275 12.5515 5.1098C12.42 5.30685 12.2332 5.46056 12.0145 5.55153C11.7957 5.6425 11.555 5.66667 11.3226 5.62098C11.0902 5.57529 10.8765 5.46179 10.7085 5.2948C10.5956 5.18366 10.506 5.05111 10.445 4.90492C10.384 4.75873 10.3528 4.60183 10.3532 4.44342C10.3536 4.28502 10.3856 4.12828 10.4474 3.9824C10.5091 3.83651 10.5993 3.70441 10.7127 3.59383H10.7085Z" fill="#C1C9E5" stroke="#C1C9E5" stroke-width="0.5"/>
</svg>
