<svg width="16" height="18" viewBox="0 0 16 18" fill="none" xmlns="http://www.w3.org/2000/svg">
<path fill-rule="evenodd" clip-rule="evenodd" d="M10.0158 0.92802C10.1073 1.00749 10.1766 1.10935 10.2169 1.22362C10.2572 1.33789 10.2672 1.46067 10.2458 1.57995V2.42399C10.1321 3.10828 10.0808 3.80149 10.0926 4.49507C10.0969 4.63881 10.123 4.78107 10.1699 4.91701C10.2053 5.09306 10.0739 5.10249 10.0926 5.2623C10.3977 6.5841 10.9021 7.85177 11.5886 9.02177C11.8011 8.87618 12.0099 8.72688 12.2407 8.59983C12.5269 8.51074 12.8234 8.4591 13.1229 8.4462C13.422 8.46317 13.7181 8.51473 14.0053 8.59983C15.1628 9.21976 15.9802 10.1796 16 11.9371C15.9871 12.3904 15.9228 12.8408 15.8083 13.2797C15.6538 13.5472 15.4838 13.7986 15.3481 14.0853C15.2303 14.1723 15.1808 14.3275 15.0793 14.4305C14.9703 14.5291 14.8795 14.6459 14.811 14.7758C14.6377 14.858 14.5402 15.0165 14.389 15.121C14.2411 15.2117 14.1111 15.3287 14.0053 15.4662C13.6377 15.5845 13.3909 15.8237 13.047 15.9648C12.7601 16.0873 12.2972 16.0336 12.0496 16.1951C11.5551 16.1262 10.9479 16.1713 10.5535 16.0032C10.3736 16.0198 10.1922 16.0068 10.0164 15.9648C9.639 15.8693 9.38923 15.6458 9.13421 15.4279C8.96945 15.2089 8.84936 14.9454 8.67378 14.7375C8.48553 14.9075 8.43684 15.2166 8.25184 15.3896C8.13737 15.6206 7.98134 15.8286 7.79156 16.0032C7.486 16.401 7.04968 16.6678 6.60239 16.924C6.25176 17.0242 5.89184 17.0884 5.52821 17.1157C4.75032 17.0497 3.97412 16.9818 3.37985 16.7321C3.25821 16.6362 3.02962 16.6477 2.88109 16.5787C2.74663 16.5019 2.60539 16.4377 2.45915 16.3868C2.25018 16.1868 2.01294 16.0148 1.80707 15.8114C1.53983 15.401 1.23767 15.0253 1.1165 14.4689C1.03674 14.459 1.10599 14.3003 1.03922 14.2771C1.03999 14.1868 0.973063 14.1641 1.00073 14.0468C0.957509 13.9099 0.931548 13.7683 0.923449 13.625C0.887859 13.3069 0.875004 12.9867 0.88497 12.6667C0.918628 12.3417 0.982901 12.0206 1.07693 11.7077C1.15174 11.5908 1.19702 11.4449 1.26873 11.3241C1.34705 11.2176 1.41151 11.1016 1.46055 10.9788C1.57461 10.9267 1.61973 10.8057 1.69068 10.7103C1.93797 10.5235 2.15328 10.3034 2.45791 10.1732C2.55482 10.0527 2.77197 10.0528 2.87985 9.94309C2.97399 9.93773 3.06573 9.91132 3.14832 9.86582C3.21555 9.83073 3.33966 9.85252 3.37861 9.78854C3.97953 9.7465 4.68061 9.70755 5.18138 9.86582C5.31167 9.689 5.34181 9.41235 5.45 9.21358C5.53089 8.99902 5.63376 8.79339 5.75695 8.59999C5.94242 8.18407 6.1959 7.83677 6.40888 7.44899C6.39544 7.3952 6.3415 7.44575 6.33238 7.48748C6.28184 7.50092 6.27179 7.55486 6.21723 7.56476C6.19127 7.65394 6.08972 7.66754 6.06375 7.75656C5.87596 7.79907 5.8364 7.98948 5.68014 8.06351C5.44042 8.28407 5.17597 8.4799 4.91291 8.67727C4.28786 9.07642 3.57909 9.32586 2.84183 9.40616C1.81015 9.46582 1.07198 9.23228 0.156686 9.17587C-0.0476403 8.99643 0.00862185 8.55671 0.00321231 8.1785C0.140173 7.5392 0.359305 6.9203 0.655142 6.33725C0.771719 6.04452 0.912919 5.76221 1.07723 5.49336C1.21409 5.23154 1.38151 4.98686 1.57599 4.76447C2.29376 3.81996 3.34801 3.21193 4.87489 3.07654H5.48864C5.78609 3.10624 6.081 3.15753 6.37102 3.23001C6.45854 3.30646 6.56414 3.35929 6.67781 3.38349C6.74319 3.45876 6.76746 3.57514 6.86978 3.61362C7.51289 3.33542 7.93205 2.83465 8.28908 2.27098C8.33236 2.07005 8.18522 1.91363 8.28908 1.77221C8.35817 1.47067 8.61258 1.35491 8.82618 1.19679C9.06648 1.05961 9.32462 0.956368 9.59324 0.889998C9.73523 0.875308 9.87872 0.888219 10.0158 0.92802ZM9.28691 1.73342C9.20608 1.76758 9.17346 1.85027 9.05677 1.84857C9.04657 1.98674 9.12771 2.03404 9.13405 2.15536C9.05677 2.27005 9.11226 2.51734 9.09572 2.69246C9.21859 2.76633 9.28923 2.66974 9.44101 2.73079C9.52549 2.37924 9.56414 2.01823 9.556 1.65676C9.55384 1.63327 9.55028 1.61132 9.51767 1.61843C9.46589 1.68242 9.34657 1.67794 9.28691 1.73342ZM8.55817 3.34454C8.29712 3.67608 7.97062 3.95035 7.59898 4.15025C7.6379 4.28817 7.66377 4.42944 7.67626 4.57219C7.64295 4.71021 7.62998 4.85237 7.63777 4.99414C7.57394 5.04545 7.62495 5.21145 7.5605 5.26261C7.59218 5.36276 7.44442 5.47312 7.5605 5.53123C7.75848 5.1912 7.99728 4.89383 8.17425 4.53386C8.36405 4.18642 8.58012 3.86571 8.63468 3.38303C8.62618 3.35304 8.60268 3.33835 8.55801 3.34454H8.55817ZM5.45154 3.91996C5.05711 3.89647 4.74057 3.9501 4.37736 3.95844C3.21184 4.1739 2.46424 4.80712 1.92251 5.64622C1.64484 6.08123 1.4134 6.54407 1.23195 7.0272C1.08899 7.22967 1.03906 7.52503 0.924997 7.75609C0.867037 8.01065 0.707381 8.34913 0.771523 8.60014C1.41031 8.51729 2.02684 8.63476 2.72792 8.60014C2.89468 8.56382 3.11756 8.54465 3.18819 8.52286C3.22343 8.51219 3.2681 8.53306 3.30334 8.52286C3.32111 8.51745 3.39608 8.45331 3.41833 8.44558C3.52993 8.41003 3.63472 8.40539 3.72544 8.3683C3.7528 8.35717 3.80194 8.30648 3.84043 8.29102C3.97364 8.23845 4.10201 8.17432 4.22405 8.09937C5.20225 7.53307 5.94057 6.64946 6.67905 5.91268C6.72449 5.62582 6.84767 5.41639 6.90934 5.14561C6.92016 4.99028 6.97503 4.87899 6.98662 4.72351C6.93654 4.55349 7.12418 4.38348 6.90934 4.37838C6.6758 4.36292 6.81754 4.72135 6.71754 4.83866C6.69466 5.04607 6.62403 5.20542 6.41043 5.22227C6.33909 5.1776 6.28046 5.11532 6.24017 5.04141C6.19989 4.96751 6.17932 4.88448 6.18044 4.80032C6.01568 4.85201 5.86025 4.92971 5.72001 5.03046C5.54103 5.38852 5.36201 5.74653 5.18293 6.10448C5.10801 6.28608 5.00442 6.45448 4.87613 6.60325C4.80241 6.79814 4.75881 7.02287 4.49236 7.02519C4.32018 7.00587 4.27366 6.86028 4.22405 6.71839C4.24216 6.5481 4.28082 6.38063 4.33919 6.21963C4.37505 6.10062 4.54877 5.91994 4.45418 5.79769C4.25727 5.98439 4.04043 6.15116 3.84043 6.33478C3.82899 6.41283 3.73657 6.40989 3.72544 6.4881C3.68031 6.54544 3.56593 6.53338 3.57181 6.64157C3.44615 6.70773 3.39082 6.84389 3.26501 6.9102C3.08835 7.11715 2.89206 7.30432 2.72792 7.5238C2.44971 7.62982 2.39206 7.95532 2.03751 7.98423C2.00289 7.91653 1.89624 7.92085 1.88403 7.83075C1.88017 7.55841 2.06069 7.47047 2.1525 7.29381C2.22978 7.10278 2.38511 6.98918 2.45945 6.79505C2.59803 6.66453 2.72629 6.52346 2.84307 6.37311C2.92962 6.33184 2.95481 6.22906 3.03487 6.1813C3.04384 6.12659 3.09793 6.11654 3.11215 6.06616C3.17104 6.06616 3.23827 5.96152 3.11215 5.98888C2.97475 6.05595 2.74477 6.03076 2.61339 6.10387C2.46564 6.13215 2.19067 6.20587 2.15311 6.02659C2.13101 5.78687 2.26904 5.70773 2.42174 5.64297C2.54557 5.51758 2.7074 5.43666 2.88201 5.41284C3.1732 5.24283 3.57939 5.18965 4.03286 5.1827C4.04832 5.09646 4.23641 5.18162 4.26299 5.10542C4.30148 5.02907 4.43301 5.04499 4.41647 4.91361C4.1409 4.85674 3.82096 4.84437 3.80272 4.53016C3.90535 4.37699 4.18339 4.39924 4.33981 4.29986C4.49437 4.32629 4.55866 4.26308 4.68509 4.26153C4.95416 4.24537 5.22418 4.25822 5.4905 4.29986C5.7245 4.13572 6.02913 4.27761 6.25772 4.10821C6.06622 3.96942 5.72449 3.979 5.45077 3.91996H5.45154ZM9.09588 4.15025C8.71768 5.31918 7.97935 6.1286 7.44627 7.14235C7.32277 7.39484 7.18178 7.63839 7.02433 7.87124C6.90671 8.14945 6.71862 8.3581 6.60239 8.63832C6.43644 8.87323 6.30708 9.13197 6.21877 9.4057C6.12263 9.50121 6.11058 9.68035 6.02697 9.78916C6.03099 9.98483 5.8755 10.0946 5.94969 10.2494C6.13516 10.3204 6.43515 10.2756 6.67843 10.2879C6.85462 10.3292 6.98987 10.4116 7.17719 10.4414C7.30254 10.5529 7.44494 10.6435 7.59898 10.7099C7.98679 11.0756 8.31096 11.5034 8.55817 11.9757C8.61304 12.2916 8.76404 12.5115 8.7883 12.8581C8.82465 13.0216 8.83761 13.1895 8.82679 13.3567C8.8356 13.5397 8.99851 13.5686 9.09526 13.6636C9.15507 13.5701 9.17455 13.436 9.24858 13.3567C9.33374 13.2757 9.32957 13.1051 9.5172 13.1265C9.79541 13.1551 9.68722 13.5698 9.70901 13.8554C9.64719 13.9978 9.67717 14.2327 9.67052 14.4309C9.80097 14.4795 9.81581 14.6435 9.97748 14.661C9.99317 14.4491 10.0451 14.2414 10.131 14.0471C10.2075 13.8554 10.2546 13.6336 10.5146 13.6253C10.9617 13.8316 10.6011 14.5692 10.6296 15.0446C10.7411 15.093 10.8566 15.1315 10.9748 15.1597C11.134 15.012 10.996 14.5672 11.3201 14.5842C11.5957 14.6411 11.6447 14.9253 11.6271 15.2747C12.0211 15.3588 12.4323 15.2903 12.7778 15.0829H13.0847C13.1911 14.9718 13.3518 14.9152 13.4682 14.8145C13.639 14.7548 13.7102 14.5959 13.8903 14.5458C14.1095 14.3146 14.3539 14.1088 14.619 13.9321C14.6523 13.7735 14.7776 13.7071 14.811 13.5485C14.9192 13.4525 14.9326 13.2612 15.041 13.1649C15.0371 12.6239 15.1998 12.2496 15.1561 11.6689C15.0529 10.4806 14.4779 9.76427 13.6218 9.32888C13.4926 9.3101 13.3646 9.2843 13.2382 9.2516C13.0591 9.2516 12.8801 9.2516 12.7011 9.2516C12.4907 9.31184 12.2855 9.38885 12.0874 9.4819C11.9938 9.58653 12.1895 9.63475 12.2407 9.71203C12.3521 9.76674 12.3274 9.95793 12.471 9.9805C12.6945 9.88452 12.813 9.68328 13.1229 9.67355C13.2013 9.71825 13.2627 9.78769 13.2974 9.87101C13.3322 9.95432 13.3383 10.0468 13.3149 10.134C13.1649 10.534 12.768 10.6867 12.3175 10.7861H11.6271C11.4278 10.7469 11.2344 10.6826 11.0513 10.5947C10.8718 10.5091 10.6402 10.4646 10.6676 10.1728C10.6957 10.0603 10.7841 10.0079 10.8595 9.94263H11.0897C11.1733 9.91821 11.2116 10.0508 11.2047 9.9043C11.1428 9.72378 10.8874 9.73552 10.7061 9.67401H10.1307C10.1235 9.73089 10.0379 9.70925 9.97717 9.7125C9.91605 9.77628 9.83473 9.81691 9.74703 9.82749C9.66588 9.87385 9.6356 9.97185 9.5169 9.98096C9.34688 10.1694 9.19479 10.3751 9.01813 10.5564C8.86945 10.7785 8.74704 11.0269 8.4812 11.1318C8.31891 11.0768 8.05539 11.1228 8.02061 10.94C8.02989 10.2585 8.44936 9.98761 8.74966 9.59735C8.90036 9.58189 8.9135 9.42873 9.05647 9.4057C9.15676 9.31791 9.27448 9.25234 9.4019 9.21327C9.60283 9.06876 9.91642 9.03738 10.2075 8.98313H10.6677C10.5223 8.60416 10.2881 8.31405 10.1691 7.90896C9.97454 7.56676 9.86388 7.14018 9.70886 6.75827C9.49356 5.89939 9.25879 5.05998 9.17192 4.07297C9.16327 4.04314 9.13978 4.0283 9.09465 4.03464L9.09588 4.15025ZM3.38016 10.633C3.01401 10.8168 2.76826 11.121 2.49779 11.4003C2.29461 11.8204 2.17723 12.2769 2.1525 12.7429C2.14425 13.039 2.17018 13.3351 2.22978 13.6253C2.2746 13.7279 2.32993 13.5253 2.38325 13.5101C2.42979 13.431 2.49575 13.3649 2.5749 13.3183C2.63397 13.2433 2.70996 13.1834 2.79665 13.1434C2.88334 13.1034 2.97826 13.0845 3.07366 13.0882C3.08495 13.1664 3.17737 13.1635 3.18866 13.2417C3.05713 13.7624 2.71385 14.071 2.5749 14.5842C2.59422 14.744 2.70907 14.8081 2.72839 14.9678C2.92159 14.9308 2.88897 14.6679 3.03533 14.5842C3.12142 14.4275 3.20536 14.2678 3.45729 14.2774C3.66007 14.3826 3.55095 14.7509 3.49561 14.9295C3.37541 15.1192 3.28482 15.3262 3.22699 15.5432C3.34692 15.5896 3.39392 15.7089 3.53379 15.7352C3.71493 15.6219 3.69623 15.3091 4.0327 15.3514C4.36145 15.4171 4.1837 15.912 4.10998 16.1188C4.65935 16.2703 5.2265 16.3476 5.79637 16.3488C6.04459 16.2645 6.32048 16.2078 6.56375 16.1188C6.73048 15.9792 6.8845 15.8251 7.02402 15.6584C7.19404 15.5211 7.26698 15.2874 7.44596 15.1597C7.45369 15.0138 7.60732 15.014 7.59929 14.8528C7.71691 14.8168 7.69372 14.6401 7.79125 14.5842C7.89078 14.3623 7.96783 14.131 8.02124 13.8938V13.1649C7.98161 12.8335 7.89111 12.5103 7.75292 12.2066C7.61406 11.946 7.44684 11.7016 7.25431 11.4777C6.85911 11.195 6.50764 10.8687 5.79637 10.9023C5.73624 11.2062 5.73624 11.5189 5.79637 11.8228C5.96001 11.8592 6.128 11.8721 6.29529 11.8613C6.37349 11.786 6.53516 11.7944 6.56375 11.6695C6.7044 11.6567 6.7183 11.5174 6.90903 11.5544C7.03608 11.5678 7.07534 11.6694 7.13902 11.7462C7.16313 12.384 6.70996 12.5446 6.14165 12.5902C5.7007 12.5452 5.28231 12.4779 4.99096 12.2833C4.80302 12.2281 4.70534 12.0823 4.53053 12.0146C4.42404 11.8655 4.2463 11.7876 4.30039 11.4777C4.47365 11.2613 4.75248 11.4391 4.99096 11.4777C4.97506 11.2213 4.98791 10.964 5.02929 10.7105C4.60209 10.4947 3.90828 10.5598 3.37938 10.633H3.38016Z" fill="#C1C9E5"/>
</svg>
