<svg width="16" height="12" viewBox="0 0 16 12" fill="none" xmlns="http://www.w3.org/2000/svg">
<path d="M0.105285 4.7923C0.106885 4.77973 0.109019 4.76715 0.110619 4.75406C0.112219 4.7441 0.113285 4.73415 0.114885 4.72419C0.111685 4.74724 0.108485 4.76977 0.105285 4.7923ZM0.146886 4.49105C0.147419 4.48686 0.148486 4.48267 0.149019 4.47847C0.149552 4.47481 0.150086 4.47114 0.150619 4.46747C0.149552 4.47533 0.147952 4.48319 0.146886 4.49105ZM15.7598 8.54461C15.7582 8.5577 15.755 8.57028 15.7534 8.58285C15.7507 8.60381 15.7481 8.62477 15.7454 8.64572C15.7507 8.61219 15.755 8.57814 15.7598 8.54461ZM15.9993 4.96572C16.0035 5.3639 15.9886 5.75946 15.9587 6.15659C15.9278 6.55896 15.8974 6.96237 15.8809 7.36579C15.8633 7.77392 15.8094 8.17891 15.7534 8.58285C15.7177 8.83695 15.6707 9.08844 15.6275 9.34096C15.5859 9.58511 15.5555 9.8303 15.515 10.0744C15.4953 10.1939 15.4649 10.3102 15.4371 10.4281C15.4099 10.5376 15.387 10.6476 15.3539 10.755C15.3219 10.8624 15.2761 10.9667 15.2334 11.0694C15.1315 11.3135 14.9902 11.5268 14.7758 11.6934C14.7219 11.7463 14.6585 11.7824 14.5843 11.8029C14.5075 11.8233 14.4302 11.8233 14.3534 11.8029C14.2675 11.7803 14.1961 11.7253 14.1305 11.6551C13.6563 11.455 13.2126 11.2066 12.7726 10.9431C12.5139 10.788 12.2537 10.635 11.9993 10.4732C11.8734 10.393 11.7528 10.3044 11.627 10.2243C11.5118 10.1509 11.412 10.0608 11.3038 9.97805C11.1811 9.88427 11.0664 9.78053 10.9486 9.68099C10.8115 9.56468 10.668 9.45413 10.5304 9.33782C10.3912 9.21941 10.2568 9.09577 10.1272 8.96689C10.0216 8.8621 9.91817 8.74946 9.80136 8.65568C9.79496 8.65673 9.7891 8.65934 9.7827 8.66039C9.6051 8.68606 9.42696 8.7175 9.24723 8.72693C8.87282 8.74527 8.49735 8.75679 8.12242 8.7526C7.91335 8.74946 7.70428 8.74527 7.49521 8.74055C7.29681 8.73427 7.09894 8.71069 6.90267 8.68868C6.76934 8.67349 6.63974 8.65725 6.51174 8.62005C6.436 8.59857 6.35867 8.58128 6.2808 8.56504C6.2072 8.5488 6.13253 8.53203 6.05893 8.5137C6.04133 8.55194 6.02 8.58966 5.99013 8.62267C5.94427 8.67349 5.8984 8.72588 5.85413 8.7767C5.71973 8.92707 5.58693 9.07691 5.44133 9.21575C5.29786 9.35354 5.14266 9.47613 4.98479 9.59768C4.64772 9.85388 4.30905 10.1096 3.96078 10.3516C3.64345 10.5711 3.28931 10.7409 2.94584 10.9174C2.57144 11.1102 2.1949 11.3015 1.81997 11.4916C1.76877 11.5178 1.71437 11.5325 1.65943 11.5388C1.58423 11.566 1.50316 11.5781 1.42316 11.5519C1.3149 11.5163 1.19756 11.4812 1.10103 11.4199C0.992759 11.3523 0.918092 11.2716 0.847158 11.1663C0.745291 11.0123 0.677557 10.8352 0.607156 10.666C0.531422 10.4852 0.464755 10.2992 0.416755 10.109C0.368754 9.91623 0.329287 9.72185 0.28982 9.52695C0.252487 9.33572 0.20662 9.14816 0.171419 8.95693C0.134086 8.74946 0.113286 8.53937 0.093552 8.3298C0.057285 7.94996 0.0418182 7.56907 0.0226181 7.18766C0.00288459 6.79524 -0.0056488 6.40126 0.00395128 6.00884C0.0140847 5.58761 0.0551517 5.17162 0.111152 4.75458C0.123952 4.66237 0.136752 4.57068 0.149019 4.47847C0.200753 4.08344 0.254087 3.68945 0.326087 3.29756C0.388488 2.96068 0.479155 2.62642 0.583156 2.29845C0.68609 1.97152 0.783691 1.64355 0.913825 1.32606C0.983693 1.15526 1.04289 0.980794 1.13036 0.817331C1.17036 0.742411 1.20876 0.666443 1.24609 0.589951C1.28449 0.511363 1.3325 0.45216 1.38743 0.382479C1.43916 0.318037 1.53196 0.287126 1.6189 0.273504C1.66263 0.238925 1.71277 0.211681 1.7677 0.197012C1.80397 0.187057 1.84397 0.181818 1.88503 0.181818C1.95757 0.181818 2.03223 0.199107 2.0877 0.237877C2.16504 0.290793 2.24077 0.346329 2.31917 0.398196C2.50104 0.520793 2.68717 0.637103 2.86691 0.761796C3.03544 0.879154 3.20078 1.0007 3.36718 1.1212C3.52931 1.23751 3.68931 1.35697 3.85198 1.4738C4.01412 1.59011 4.18159 1.69961 4.34265 1.81697C4.52452 1.94952 4.71172 2.08364 4.87599 2.23663C5.03599 2.3849 5.18906 2.53788 5.33893 2.6961C5.47813 2.84228 5.6168 2.99002 5.7592 3.13305C5.83013 3.2043 5.90053 3.27608 5.9832 3.35205C6.20774 3.25408 6.43654 3.16763 6.68081 3.12624C6.88241 3.09166 7.08614 3.06494 7.29094 3.04556C7.60775 3.01569 7.92668 2.99788 8.24562 2.99788C8.30535 2.99788 8.36562 2.9984 8.42535 2.99998C8.79229 3.00836 9.15923 3.03246 9.51816 3.10843C9.67283 3.14039 9.83977 3.18178 9.99177 3.24727C10.0451 3.19016 10.0952 3.13043 10.1502 3.07437C10.2638 2.95806 10.3758 2.84175 10.4931 2.72911C10.7528 2.48392 11.0355 2.26911 11.3208 2.05378C11.7528 1.72738 12.1929 1.40988 12.6585 1.13273C13.1449 0.842479 13.6681 0.618766 14.1993 0.422821C14.2313 0.41077 14.267 0.405531 14.3033 0.405531C14.3331 0.405531 14.363 0.411818 14.3923 0.418105C14.4035 0.410247 14.411 0.398196 14.4227 0.391386C14.4873 0.354187 14.5582 0.336898 14.6291 0.336898C14.7731 0.336898 14.9145 0.409199 14.9902 0.537559C15.0729 0.674825 15.1337 0.820475 15.1961 0.966648C15.2958 1.19665 15.3961 1.42717 15.4894 1.65979C15.5747 1.87512 15.6131 2.10093 15.6558 2.32674C15.6985 2.54941 15.7689 2.76474 15.8169 2.98635C15.8718 3.23469 15.9033 3.49194 15.9262 3.74446C15.9635 4.15155 15.995 4.55811 15.9993 4.96572ZM5.44293 8.14014C5.44026 8.13281 5.43386 8.12495 5.43173 8.11814C5.42746 8.10347 5.4312 8.08775 5.42853 8.07256C5.37146 8.00287 5.34373 7.92586 5.3352 7.8347C5.33306 7.80798 5.33093 7.78283 5.32879 7.75611C5.32719 7.7383 5.32826 7.71996 5.3272 7.70162C5.18746 7.78545 5.04826 7.87032 4.90479 7.94786C4.58852 8.11761 4.24879 8.24702 3.91598 8.3801C3.81625 8.41887 3.67811 8.38848 3.58958 8.33818C3.49518 8.28317 3.42425 8.19306 3.39491 8.0888C3.36451 7.98139 3.38051 7.86508 3.43758 7.76816C3.49785 7.66809 3.58318 7.61779 3.69038 7.57693C3.92078 7.49101 4.15332 7.41032 4.38159 7.3223C4.53786 7.24896 4.69306 7.16932 4.84026 7.08025C4.98693 6.99119 5.12293 6.88745 5.27173 6.80258C5.28773 6.79315 5.30693 6.79577 5.32346 6.78896C5.32293 6.68103 5.32399 6.5731 5.32506 6.46465C5.28613 6.4746 5.24826 6.48823 5.20666 6.4877C4.79172 6.48037 4.37679 6.50918 3.96185 6.51023C3.70318 6.51023 3.48771 6.29752 3.48771 6.04342C3.48771 5.79194 3.70318 5.57451 3.96185 5.57766C4.22479 5.5808 4.48665 5.58709 4.74852 5.5808C4.90266 5.57661 5.05413 5.56456 5.20719 5.55303C5.21573 5.55251 5.22479 5.55198 5.23333 5.55198C5.27493 5.55198 5.3128 5.56718 5.3512 5.57923C5.3576 5.47706 5.364 5.37438 5.3704 5.27221C5.26639 5.29684 5.15386 5.28741 5.05946 5.2282C4.79546 5.0616 4.52452 4.9018 4.23919 4.77292C4.09145 4.71476 3.94158 4.66499 3.79172 4.61417C3.55865 4.53453 3.40611 4.31082 3.47438 4.06563C3.52611 3.8833 3.71438 3.73294 3.91012 3.73294C3.95118 3.73294 3.99278 3.73975 4.03278 3.7539C4.38425 3.87859 4.72612 4.01428 5.04239 4.2097C5.17253 4.29039 5.30213 4.3716 5.43066 4.45437C5.44666 4.29825 5.468 4.14317 5.4904 3.98809C5.4776 3.97185 5.45946 3.96084 5.44933 3.94198C5.43493 3.91474 5.41893 3.88959 5.40133 3.86497C5.20559 3.63392 4.98266 3.42068 4.77146 3.20326C4.55172 2.97797 4.31972 2.76788 4.06905 2.57351C3.89518 2.44462 3.71865 2.31993 3.54158 2.19576C3.35065 2.06111 3.16451 1.91913 2.97198 1.78553C2.75971 1.63622 2.54584 1.489 2.32717 1.34911C2.2285 1.28571 2.1245 1.2328 2.02477 1.1715C1.9853 1.1474 1.9469 1.1212 1.90797 1.09606C1.8573 1.18669 1.81197 1.28048 1.77037 1.37373C1.59223 1.80754 1.45463 2.25654 1.32183 2.70553C0.943692 3.9928 0.784758 5.3618 0.799158 6.69937C0.800225 6.79 0.801824 6.88064 0.803958 6.97076C0.819958 7.54549 0.853558 8.12495 0.922359 8.69707C0.944226 8.83119 0.973026 8.96479 0.998093 9.09839C1.03116 9.26499 1.06156 9.4316 1.09676 9.59664C1.12876 9.75276 1.16556 9.90942 1.21089 10.0624C1.24343 10.1688 1.28343 10.2725 1.32663 10.3752C1.3821 10.5009 1.4397 10.6246 1.5149 10.7398C1.52183 10.7419 1.52876 10.744 1.53516 10.7466C1.7965 10.623 2.06103 10.5051 2.32504 10.3846C2.46211 10.3212 2.59757 10.2526 2.73357 10.1866C2.86691 10.1211 3.00078 10.0577 3.13091 9.98433C3.39491 9.83607 3.64345 9.67051 3.88665 9.4908C4.11545 9.32367 4.34479 9.15759 4.57199 8.98732C4.89519 8.73479 5.17146 8.44244 5.44293 8.14014ZM9.35283 7.89338C9.4899 7.87347 9.6227 7.84884 9.7523 7.80169C9.77203 7.79278 9.79177 7.78335 9.81097 7.77445C9.81417 7.77287 9.8179 7.77235 9.8211 7.77078C9.8771 7.1908 9.8867 6.60506 9.88297 6.02456C9.88083 5.70183 9.8915 5.38014 9.86963 5.05845C9.84723 4.73572 9.81097 4.41403 9.77896 4.0913C9.74803 4.07506 9.7155 4.06091 9.6883 4.03734C9.6675 4.02529 9.6451 4.01481 9.6227 4.00433C9.41843 3.92993 9.20349 3.89221 8.98963 3.86182C8.69042 3.83196 8.38962 3.82829 8.08935 3.82934C7.79175 3.82934 7.49628 3.84139 7.19974 3.87073C6.95014 3.90845 6.70641 3.96294 6.47014 4.05305C6.40827 4.08082 6.34747 4.11121 6.28667 4.14107C6.2616 4.2951 6.23707 4.44914 6.2152 4.60369C6.1768 4.92014 6.15654 5.23763 6.13413 5.5546C6.11547 5.84066 6.0936 6.12672 6.08933 6.41383C6.08507 6.68836 6.07973 6.96342 6.08613 7.23795C6.08933 7.38518 6.08987 7.53292 6.09787 7.68014C6.33894 7.77235 6.59281 7.85041 6.84774 7.88866C7.28988 7.94315 7.73521 7.96515 8.18109 7.95939C8.40135 7.95625 8.62109 7.94524 8.84136 7.93267C9.01363 7.92324 9.18376 7.91224 9.35283 7.89338ZM15.2201 4.73153C15.2126 4.52929 15.1907 4.32811 15.171 4.12588C15.1545 3.93884 15.1427 3.75232 15.1203 3.56686C15.0995 3.4144 15.0787 3.26141 15.0403 3.11157C14.9966 2.94077 14.9459 2.77155 14.9166 2.59761C14.8873 2.4289 14.8638 2.25758 14.8179 2.09203C14.779 1.95319 14.7187 1.81906 14.6606 1.68599C14.6046 1.56077 14.5422 1.43817 14.4819 1.31348C14.4643 1.27733 14.4441 1.24275 14.427 1.2066C14.4243 1.20765 14.4227 1.20922 14.4206 1.20975C14.2211 1.281 14.0227 1.3512 13.8254 1.42874C13.6307 1.51152 13.4393 1.59797 13.2531 1.69804C13.0318 1.81749 12.8185 1.95214 12.6105 2.0915C12.2435 2.33617 11.8851 2.59342 11.5331 2.85799C11.3384 3.00941 11.1534 3.17025 10.9742 3.34C10.82 3.48513 10.6686 3.63444 10.5299 3.79528C10.5624 3.85449 10.5843 3.91788 10.5902 3.99018C10.5944 4.04519 10.5987 4.10073 10.6024 4.15574C10.6078 4.22961 10.612 4.30401 10.6163 4.37788C10.6974 4.32078 10.7774 4.26157 10.8616 4.21023C10.9747 4.14159 11.0851 4.06405 11.2024 4.0038C11.3571 3.92312 11.5123 3.84244 11.6702 3.76595C11.7422 3.73032 11.8152 3.70831 11.8915 3.70831C11.9267 3.70831 11.9624 3.71303 11.9987 3.72298C12.1059 3.7518 12.1982 3.822 12.2547 3.91579C12.3651 4.10073 12.3107 4.39098 12.1006 4.49C11.9427 4.5644 11.7843 4.64141 11.6275 4.71791C11.508 4.77501 11.3944 4.84784 11.2792 4.9128C11.1774 4.96991 11.0798 5.03854 10.9827 5.10299C10.8878 5.1669 10.7934 5.2303 10.7 5.29736C10.6968 5.29998 10.6936 5.3026 10.6904 5.30522C10.6862 5.30889 10.6814 5.31098 10.6771 5.31465C10.6792 5.39638 10.6776 5.47864 10.6792 5.56037C11.1251 5.56823 11.5704 5.58604 12.0163 5.57923C12.2531 5.57504 12.451 5.77622 12.451 6.00622C12.451 6.22574 12.2537 6.44841 12.0163 6.43217C11.5726 6.40126 11.1246 6.42431 10.6803 6.43007C10.6776 6.56419 10.6702 6.69779 10.6654 6.83192C10.708 6.8513 10.748 6.8775 10.7886 6.90946C10.9896 7.04568 11.2024 7.14994 11.4243 7.24738C11.6035 7.31969 11.7854 7.38832 11.9678 7.45486C12.0665 7.49048 12.1475 7.53973 12.2019 7.63142C12.2547 7.72048 12.2697 7.82841 12.2414 7.92743C12.2142 8.02436 12.1486 8.10714 12.0617 8.15848C11.9784 8.20668 11.8536 8.23183 11.7603 8.19725C11.4899 8.09613 11.2238 7.98401 10.9608 7.86613C10.8462 7.81531 10.7326 7.76082 10.6222 7.70162C10.6163 7.78388 10.6142 7.86613 10.603 7.94786C10.5886 8.0537 10.5699 8.15848 10.5523 8.26379C10.7534 8.48069 10.9768 8.67716 11.2062 8.86105C11.4782 9.079 11.7384 9.31005 12.0131 9.52433C12.3657 9.77634 12.7411 9.99691 13.115 10.2164C13.4894 10.436 13.8729 10.634 14.2702 10.8095C14.3113 10.8263 14.3523 10.843 14.3934 10.8603C14.4249 10.81 14.4558 10.7592 14.4819 10.7058C14.5545 10.5229 14.6078 10.3354 14.6617 10.1457C14.723 9.92618 14.7699 9.70037 14.8094 9.47666C14.8489 9.25085 14.8926 9.02714 14.9385 8.80238C14.9779 8.60905 15.0083 8.4152 15.0361 8.21925C15.083 7.83732 15.1102 7.45486 15.1353 7.07082C15.1614 6.68155 15.1891 6.29333 15.2163 5.90458C15.2419 5.51479 15.235 5.12289 15.2201 4.73153Z" fill="#C1C9E5"/>
</svg>
