<svg width="16" height="16" viewBox="0 0 16 16" fill="none" xmlns="http://www.w3.org/2000/svg">
<path d="M14.0631 8.24284C14.1971 8.24284 14.3055 8.13423 14.3055 8.00043C14.3055 7.86662 14.1971 7.75801 14.0631 7.75801H13.3297C13.3157 7.44966 13.2749 7.14832 13.2107 6.85571L13.9193 6.66588C14.0485 6.63145 14.1254 6.49835 14.0907 6.36915C14.0563 6.23946 13.9232 6.1631 13.794 6.1975L13.0858 6.38733C12.993 6.09545 12.8752 5.81497 12.7355 5.54733L13.3722 5.1798C13.4883 5.1129 13.528 4.96477 13.4611 4.84866C13.3937 4.73256 13.2454 4.69304 13.1297 4.75994L12.4924 5.1277C12.328 4.8717 12.1436 4.63 11.9389 4.40625L12.4592 3.88599C12.5537 3.79145 12.5537 3.63798 12.4592 3.54321C12.3644 3.44866 12.211 3.44866 12.1164 3.54321L11.5962 4.06347C11.3724 3.85909 11.1305 3.67437 10.8745 3.51L11.2422 2.8729C11.3094 2.75702 11.2696 2.60866 11.1535 2.54151C11.0379 2.4746 10.8893 2.51435 10.8223 2.63048L10.4548 3.26685C10.1872 3.12744 9.90667 3.00963 9.6148 2.91679L9.80486 2.20915C9.83951 2.07969 9.76292 1.94685 9.63346 1.91219C9.50474 1.87776 9.37116 1.95437 9.3365 2.08335L9.14645 2.79196C8.85383 2.72773 8.55275 2.68724 8.24414 2.67318L8.2444 1.93986C8.2444 1.80605 8.13605 1.69744 8.00199 1.69744C7.86818 1.69744 7.75957 1.80605 7.75957 1.93986L7.75934 2.67318C7.45122 2.68724 7.14988 2.72798 6.85727 2.79222L6.66744 2.08361C6.63278 1.9544 6.50017 1.8773 6.37071 1.91222C6.24125 1.94665 6.1644 2.07974 6.19932 2.20895L6.38889 2.9173C6.09701 3.01014 5.81653 3.12795 5.54889 3.26736L5.18162 2.63074C5.11471 2.51463 4.96659 2.47486 4.85071 2.54176C4.7346 2.60866 4.69483 2.75705 4.76173 2.87293L5.12949 3.51051C4.87349 3.67511 4.63179 3.8596 4.40804 4.0642L3.88804 3.54372C3.79326 3.44892 3.6398 3.44918 3.545 3.54347C3.45045 3.63824 3.45045 3.7917 3.545 3.88651L4.065 4.40699C3.86088 4.63074 3.67613 4.8727 3.51201 5.12869L2.87468 4.7602C2.7588 4.69304 2.61045 4.73281 2.54352 4.84892C2.47662 4.9648 2.51613 5.11293 2.63201 5.18008L3.26886 5.5481C3.12946 5.81574 3.01164 6.09622 2.9188 6.3881L2.21068 6.19756C2.08196 6.16338 1.94861 6.23949 1.91372 6.36895C1.87906 6.49815 1.95565 6.63125 2.08488 6.66591L2.79397 6.85645C2.72974 7.14906 2.68926 7.45014 2.6752 7.75852L1.94162 7.75804H1.94139C1.80758 7.75804 1.6992 7.86639 1.69897 8.00023C1.69897 8.13429 1.80733 8.2429 1.94116 8.2429L2.67522 8.24338C2.68929 8.55173 2.73003 8.85307 2.79426 9.14568L2.08542 9.33477C1.95596 9.36943 1.87912 9.5023 1.91355 9.63173C1.94264 9.74008 2.04057 9.81162 2.14772 9.81162C2.16858 9.81162 2.18943 9.80895 2.21028 9.80338L2.91937 9.61403C3.01221 9.90568 3.13003 10.1862 3.26943 10.4538L2.63258 10.8206C2.51647 10.8875 2.4767 11.0359 2.54338 11.1517C2.58824 11.2295 2.66968 11.2732 2.7538 11.2732C2.79477 11.2732 2.83622 11.2628 2.87454 11.2409L3.51261 10.8732C3.67699 11.1292 3.86145 11.3709 4.06608 11.5946L3.54534 12.1144C3.45054 12.2089 3.45031 12.3624 3.54486 12.4572C3.59238 12.5047 3.65443 12.5284 3.7165 12.5284C3.77858 12.5284 3.84062 12.5049 3.8879 12.4576L4.40886 11.9376C4.63261 12.1418 4.87432 12.3265 5.13031 12.4906L4.76182 13.1277C4.69491 13.2436 4.73443 13.3917 4.85054 13.4589C4.88861 13.4809 4.93028 13.4913 4.9715 13.4913C5.05514 13.4913 5.13659 13.4482 5.18167 13.3704L5.54968 12.7337C5.81733 12.8732 6.09781 12.991 6.38968 13.0838L6.19937 13.7914C6.16446 13.9209 6.24108 14.0537 6.37054 14.0887C6.39139 14.0942 6.41272 14.0969 6.43358 14.0969C6.54048 14.0969 6.63843 14.0256 6.66753 13.9175L6.85807 13.2087C7.15068 13.2732 7.45201 13.3136 7.76014 13.3277L7.75966 14.0608C7.75966 14.1949 7.86801 14.3035 8.00184 14.3035H8.00207C8.13588 14.3035 8.24449 14.1951 8.24449 14.0613L8.24497 13.3277C8.55309 13.3136 8.85466 13.2732 9.14727 13.2087L9.33659 13.9173C9.36545 14.0256 9.46338 14.0972 9.57054 14.0972C9.59139 14.0972 9.61247 14.0945 9.63332 14.0889C9.76278 14.0543 9.83937 13.9214 9.80497 13.792L9.61562 13.0838C9.90727 12.991 10.188 12.8732 10.4554 12.7338L10.8224 13.3704C10.867 13.4482 10.9487 13.4916 11.0326 13.4916C11.0735 13.4916 11.1152 13.4812 11.1533 13.4594C11.2694 13.3925 11.3094 13.2441 11.2423 13.1282L10.875 12.4906C11.1308 12.3262 11.3727 12.1418 11.5964 11.9372L12.116 12.4574C12.1632 12.5049 12.2255 12.5287 12.2876 12.5287C12.3497 12.5287 12.4115 12.5049 12.459 12.4577C12.5535 12.3631 12.5535 12.2097 12.4593 12.1149L11.9393 11.5944C12.1439 11.3707 12.3283 11.1289 12.4927 10.873L13.1291 11.241C13.1676 11.263 13.2093 11.2734 13.2503 11.2734C13.3342 11.2734 13.4157 11.2301 13.4605 11.1522C13.5276 11.0363 13.4879 10.8882 13.372 10.8211L12.7359 10.4533C12.8753 10.1857 12.9931 9.90494 13.0859 9.6133L13.7933 9.80335C13.8144 9.80918 13.8357 9.81185 13.8564 9.81185C13.9633 9.81185 14.0612 9.74057 14.0903 9.63222C14.1252 9.50301 14.0484 9.36991 13.9191 9.33525L13.2108 9.14494C13.2753 8.85233 13.3158 8.55099 13.3298 8.24287H14.0631V8.24284ZM8.00247 12.8489C5.329 12.8489 3.15397 10.6739 3.15397 8.00043C3.15397 5.32696 5.329 3.15193 8.00247 3.15193C10.6759 3.15193 12.851 5.32696 12.851 8.00043C12.851 10.6739 10.6759 12.8489 8.00247 12.8489Z" fill="#C1C9E5" stroke="#C1C9E5" stroke-width="0.125"/>
<path d="M10.9092 7.27273C10.5936 7.27273 10.3272 7.47588 10.2268 7.75758H9.43286C9.33008 7.14983 8.8503 6.67006 8.24255 6.56727V5.77358C8.524 5.67298 8.72741 5.40656 8.72741 5.09091C8.72741 4.68994 8.4011 4.36364 8.00013 4.36364C7.59917 4.36364 7.27286 4.68994 7.27286 5.09091C7.27286 5.40653 7.47601 5.67298 7.75772 5.77332V6.56727C7.14996 6.67006 6.67019 7.14983 6.56741 7.75758H5.77371C5.67312 7.47588 5.4067 7.27273 5.09104 7.27273C4.69008 7.27273 4.36377 7.59903 4.36377 8C4.36377 8.40097 4.69008 8.72727 5.09104 8.72727C5.40667 8.72727 5.67312 8.52412 5.77371 8.24241H6.56741C6.67019 8.85017 7.14996 9.32994 7.75772 9.43273V10.2264C7.47601 10.327 7.27286 10.5934 7.27286 10.9091C7.27286 11.3101 7.59917 11.6364 8.00013 11.6364C8.4011 11.6364 8.72741 11.3101 8.72741 10.9091C8.72741 10.5935 8.52402 10.327 8.24255 10.2264V9.43273C8.8503 9.32994 9.33008 8.85017 9.43286 8.24241H10.2268C10.3272 8.52412 10.5936 8.72727 10.9092 8.72727C11.3102 8.72727 11.6365 8.40097 11.6365 8C11.6365 7.59903 11.3102 7.27273 10.9092 7.27273ZM5.09104 8.24241C4.95746 8.24241 4.84863 8.13358 4.84863 8C4.84863 7.86642 4.95746 7.75758 5.09104 7.75758C5.22462 7.75758 5.33346 7.86642 5.33346 8C5.33346 8.13358 5.22462 8.24241 5.09104 8.24241ZM8.00013 4.84849C8.13371 4.84849 8.24255 4.95733 8.24255 5.09091C8.24255 5.22449 8.13371 5.33332 8.00013 5.33332C7.86655 5.33332 7.75772 5.22449 7.75772 5.09091C7.75772 4.95733 7.86655 4.84849 8.00013 4.84849ZM8.00013 11.1515C7.86655 11.1515 7.75772 11.0427 7.75772 10.9091C7.75772 10.7755 7.86655 10.6667 8.00013 10.6667C8.13371 10.6667 8.24255 10.7755 8.24255 10.9091C8.24255 11.0427 8.13371 11.1515 8.00013 11.1515ZM8.00013 8.96969C7.46533 8.96969 7.03045 8.53477 7.03045 8C7.03045 7.4652 7.46536 7.03031 8.00013 7.03031C8.53493 7.03031 8.96982 7.46523 8.96982 8C8.96982 8.5348 8.53493 8.96969 8.00013 8.96969ZM10.9092 8.24241C10.7754 8.24241 10.6668 8.13358 10.6668 8C10.6668 7.86642 10.7754 7.75758 10.9092 7.75758C11.043 7.75758 11.1516 7.86642 11.1516 8C11.1516 8.13358 11.043 8.24241 10.9092 8.24241Z" fill="#C1C9E5" stroke="#C1C9E5" stroke-width="0.125"/>
<path d="M8.00002 0.727272C3.98985 0.727272 0.727295 3.98983 0.727295 8C0.727295 12.0102 3.98985 15.2727 8.00002 15.2727C12.0102 15.2727 15.2727 12.0102 15.2727 8C15.2727 3.98983 12.0102 0.727272 8.00002 0.727272ZM8.00002 14.7879C4.25724 14.7879 1.21215 11.7428 1.21215 8C1.21215 4.25722 4.25724 1.21213 8.00002 1.21213C11.7428 1.21213 14.7879 4.25722 14.7879 8C14.7879 11.7428 11.7428 14.7879 8.00002 14.7879Z" fill="#C1C9E5" stroke="#C1C9E5" stroke-width="0.125"/>
</svg>
