<svg width="16" height="16" viewBox="0 0 16 16" fill="none" xmlns="http://www.w3.org/2000/svg">
<path d="M15.9834 5.07564L13.3135 14.918C13.2556 15.1314 13.0594 15.2725 12.8457 15.2726C12.8043 15.2726 12.7624 15.2673 12.7206 15.2562L6.18933 13.5276C5.93147 13.4594 5.77791 13.1966 5.84703 12.9419L5.91746 12.6823C5.96188 12.5187 6.13218 12.4217 6.29786 12.4654C6.46354 12.5093 6.56185 12.6775 6.51744 12.8412L6.48248 12.97L12.7489 14.6285L15.3479 5.04758L12.6897 4.34404C12.524 4.30017 12.4256 4.13195 12.47 3.9683C12.5145 3.80465 12.6849 3.7076 12.8504 3.75137L15.6411 4.48996C15.899 4.55827 16.0526 4.82098 15.9834 5.07564ZM5.73294 2.00777C5.5614 2.00777 5.42236 2.14511 5.42236 2.31455V2.6065C5.42236 2.77595 5.5614 2.91328 5.73294 2.91328C5.90449 2.91328 6.04353 2.77595 6.04353 2.6065V2.31455C6.04353 2.14511 5.90449 2.00777 5.73294 2.00777ZM9.69326 6.12315C9.76925 6.2293 9.76925 6.37124 9.69326 6.47742L8.25367 8.48839C8.19545 8.56969 8.1009 8.61806 8.00006 8.61806C7.89926 8.61806 7.80467 8.56972 7.74649 8.48839L6.30683 6.47742C6.23084 6.37127 6.23084 6.22933 6.30683 6.12315L7.74649 4.11218C7.8047 4.03088 7.89926 3.98251 8.00006 3.98251C8.1009 3.98251 8.19545 4.03085 8.25367 4.11218L9.69326 6.12315ZM9.05929 6.30027L8.00006 4.82064L6.94084 6.30027L8.00006 7.77987L9.05929 6.30027ZM11.8372 13.0769L11.7607 13.3589C11.7164 13.5225 11.8147 13.6908 11.9804 13.7346C12.0073 13.7417 12.0343 13.7451 12.0609 13.7451C12.1981 13.7451 12.3236 13.6547 12.3608 13.5176L12.4372 13.2356C12.4816 13.072 12.3833 12.9038 12.2176 12.8599C12.0519 12.816 11.8816 12.9132 11.8372 13.0769ZM3.87797 7.45768C3.9669 7.43416 4.05245 7.42056 4.1352 7.41695V1.20547C4.1352 0.941779 4.35237 0.727272 4.6193 0.727272H11.3809C11.6478 0.727272 11.865 0.941779 11.865 1.20547V7.41691C11.9477 7.42053 12.0333 7.43413 12.1221 7.45765C12.6919 7.60845 13.0313 8.18904 12.8786 8.75185C12.7309 9.29635 12.2592 9.70996 11.865 9.99274V11.395C11.865 11.6587 11.6478 11.8733 11.3809 11.8733H4.6193C4.35237 11.8733 4.1352 11.6587 4.1352 11.395V9.99281C3.74104 9.71006 3.26926 9.29648 3.12146 8.75188C3.0475 8.47933 3.0855 8.19457 3.22844 7.95006C3.37137 7.70559 3.60207 7.53069 3.87797 7.45768ZM11.865 9.20077C12.0904 8.99039 12.2247 8.79173 12.2786 8.59307C12.3426 8.35706 12.2003 8.11358 11.9613 8.05031C11.9252 8.04073 11.8933 8.03494 11.865 8.03197V9.20077ZM4.75637 11.2597H11.2438V9.83833C11.2438 9.8356 11.2438 9.83284 11.2438 9.83011V7.78808C11.2437 7.78365 11.2437 7.77919 11.2438 7.77475V1.34083H4.75637V7.77486C4.75647 7.77929 4.75647 7.78375 4.75637 7.78822V9.82994C4.7564 9.8328 4.7564 9.83567 4.75637 9.83853V11.2597ZM3.72147 8.59307C3.77541 8.7918 3.90979 8.99052 4.1352 9.20091V8.03201C4.10683 8.03494 4.07495 8.04073 4.03878 8.05031C3.92307 8.08092 3.82634 8.15431 3.76637 8.25691C3.70642 8.35948 3.69048 8.47885 3.72147 8.59307ZM5.98997 13.9037L3.25121 14.6285L0.652113 5.04762L3.31039 4.34404C3.47607 4.30017 3.57442 4.13195 3.53001 3.9683C3.4856 3.80465 3.31519 3.70754 3.14965 3.75137L0.358957 4.49C0.234241 4.52299 0.12992 4.60214 0.0652148 4.71285C0.000475459 4.8236 -0.0167792 4.95245 0.0166603 5.07567L2.68664 14.918C2.72004 15.0412 2.80018 15.1443 2.91233 15.2083C2.98708 15.2509 3.06993 15.2727 3.1539 15.2727C3.19586 15.2727 3.23806 15.2673 3.27965 15.2563L6.15078 14.4964C6.31646 14.4525 6.41481 14.2843 6.3704 14.1207C6.32595 13.9569 6.15565 13.8599 5.98997 13.9037ZM1.77025 5.4421C1.60457 5.48597 1.50625 5.65419 1.55063 5.81784L1.62714 6.09987C1.66434 6.23694 1.78981 6.32733 1.92695 6.32733C1.95356 6.32733 1.98062 6.32392 2.00753 6.3168C2.17321 6.27293 2.27153 6.10471 2.22715 5.94106L2.15064 5.65903C2.10623 5.49535 1.936 5.39827 1.77025 5.4421ZM10.2672 9.68725C10.0956 9.68725 9.9566 9.82459 9.9566 9.99403V10.286C9.9566 10.4554 10.0956 10.5928 10.2672 10.5928C10.4387 10.5928 10.5778 10.4554 10.5778 10.286V9.99403C10.5778 9.82462 10.4387 9.68725 10.2672 9.68725Z" fill="#C1C9E5"/>
</svg>
