<svg width="40" height="40" viewBox="0 0 40 40" fill="none" xmlns="http://www.w3.org/2000/svg">
<path d="M27.5 16.1294H20.5V17.1294H27.5V16.1294Z" fill="#C1C9E5"/>
<path d="M27.5 24.1294H20.5V25.1294H27.5V24.1294Z" fill="#C1C9E5"/>
<path d="M17.3 20.1294H13.7C13.3819 20.129 13.0768 20.0025 12.8519 19.7775C12.6269 19.5526 12.5004 19.2475 12.5 18.9294V15.3294C12.5004 15.0112 12.6269 14.7062 12.8519 14.4813C13.0768 14.2563 13.3819 14.1298 13.7 14.1294H17.3C17.6181 14.1298 17.9232 14.2563 18.1481 14.4813C18.3731 14.7062 18.4996 15.0112 18.5 15.3294V18.9294C18.4996 19.2475 18.3731 19.5526 18.1481 19.7775C17.9232 20.0025 17.6181 20.129 17.3 20.1294ZM13.7 15.3294V18.9294H17.3007L17.3 15.3294H13.7Z" fill="#C1C9E5"/>
<path d="M17.3 27.1294H13.7C13.3819 27.1291 13.0768 27.0236 12.8519 26.8362C12.6269 26.6487 12.5004 26.3945 12.5 26.1294V23.1294C12.5004 22.8643 12.6269 22.6101 12.8519 22.4226C13.0768 22.2352 13.3819 22.1297 13.7 22.1294H17.3C17.6181 22.1297 17.9232 22.2352 18.1481 22.4226C18.3731 22.6101 18.4996 22.8643 18.5 23.1294V26.1294C18.4996 26.3945 18.3731 26.6487 18.1481 26.8362C17.9232 27.0236 17.6181 27.1291 17.3 27.1294ZM13.7 23.1294V26.1294H17.3007L17.3 23.1294H13.7Z" fill="#C1C9E5"/>
<path d="M26 8.87939C29.1756 8.87939 31.75 11.4538 31.75 14.6294V26.6294C31.75 29.805 29.1756 32.3794 26 32.3794H14C10.8244 32.3794 8.25 29.805 8.25 26.6294V14.6294C8.25 11.4538 10.8244 8.87939 14 8.87939H26Z" stroke="#C1C9E5" stroke-width="1.5"/>
</svg>
