<svg width="22" height="22" viewBox="0 0 22 22" fill="none" xmlns="http://www.w3.org/2000/svg">
<path d="M11 1.75C11.1138 1.75 11.3148 1.79428 11.708 2.30762C12.1017 2.82173 12.5459 3.6155 13.1914 4.77344L13.5195 5.36133C13.8469 5.94842 14.1066 6.44494 14.542 6.77539C14.9818 7.10911 15.524 7.21589 16.1582 7.35938L16.7949 7.50391C18.0502 7.78793 18.9043 7.98335 19.4893 8.21387C20.0599 8.43878 20.1806 8.62284 20.2266 8.77051C20.275 8.92635 20.2767 9.16508 19.9355 9.70703C19.5892 10.2572 19.004 10.9432 18.1494 11.9424L17.7158 12.4502C17.2801 12.9597 16.9117 13.3688 16.748 13.8945V13.8955C16.5857 14.4182 16.6528 14.9695 16.7188 15.6504L16.7842 16.3271C16.9132 17.6591 17.0001 18.5766 16.9707 19.2373C16.945 19.8137 16.8355 20.0257 16.7344 20.126L16.6914 20.1631C16.5928 20.2379 16.4103 20.3203 15.8174 20.1504C15.2146 19.9777 14.4134 19.6113 13.2383 19.0703L12.6426 18.7959C12.0511 18.5236 11.5498 18.2744 11 18.2744C10.4502 18.2744 9.94886 18.5236 9.35742 18.7959L8.76172 19.0703C7.58659 19.6113 6.78541 19.9777 6.18262 20.1504C5.58956 20.3203 5.40712 20.2378 5.30859 20.1631C5.19787 20.079 5.05871 19.8965 5.0293 19.2373C4.99986 18.5766 5.08675 17.6591 5.21582 16.3271L5.28125 15.6504C5.34724 14.9694 5.41456 14.4175 5.25195 13.8945C5.08832 13.3688 4.71992 12.9597 4.28418 12.4502L3.85059 11.9424H3.84961C2.99522 10.9433 2.41077 10.2572 2.06445 9.70703C1.7233 9.16508 1.725 8.92634 1.77344 8.77051C1.81936 8.62284 1.94009 8.43878 2.51074 8.21387C3.09567 7.98335 3.94979 7.78793 5.20508 7.50391L5.8418 7.35938C6.47593 7.2159 7.01819 7.10911 7.45801 6.77539C7.89327 6.44497 8.15312 5.94858 8.48047 5.36133L8.80859 4.77344C9.45406 3.61552 9.89829 2.82173 10.292 2.30762C10.6852 1.79427 10.8862 1.75 11 1.75Z" stroke="#C1C9E5" stroke-width="1.5"/>
</svg>
