<svg width="22" height="22" viewBox="0 0 22 22" fill="none" xmlns="http://www.w3.org/2000/svg">
<path d="M4.61715 8.89555C2.81179 8.17341 1.90912 7.81234 1.90912 7.36366C1.90912 6.91498 2.81179 6.5539 4.61715 5.83177L7.1703 4.8105C8.97565 4.08837 9.8783 3.72729 11 3.72729C12.1218 3.72729 13.0244 4.08837 14.8298 4.8105L17.3829 5.83177C19.1883 6.5539 20.0909 6.91498 20.0909 7.36366C20.0909 7.81234 19.1883 8.17341 17.3829 8.89555L14.8298 9.91684C13.0244 10.6389 12.1218 11 11 11C9.8783 11 8.97565 10.6389 7.1703 9.91684L4.61715 8.89555Z" stroke="#C1C9E5" stroke-width="1.2"/>
<path d="M20.0909 11C20.0909 11 19.1883 11.8097 17.3829 12.5319L14.8298 13.5532C13.0244 14.2753 12.1218 14.6364 11 14.6364C9.8783 14.6364 8.97565 14.2753 7.1703 13.5532L4.61715 12.5319C2.81179 11.8097 1.90912 11 1.90912 11" stroke="#C1C9E5" stroke-width="1.2" stroke-linecap="round"/>
<path d="M20.0909 14.6365C20.0909 14.6365 19.1883 15.4462 17.3829 16.1684L14.8298 17.1897C13.0244 17.9117 12.1218 18.2728 11 18.2728C9.8783 18.2728 8.97565 17.9117 7.1703 17.1897L4.61715 16.1684C2.81179 15.4462 1.90912 14.6365 1.90912 14.6365" stroke="#C1C9E5" stroke-width="1.2" stroke-linecap="round"/>
</svg>
